<svg width="20" height="20" viewBox="0 0 20 20" fill="none" xmlns="http://www.w3.org/2000/svg">
<path d="M3.5061 9.78623C3.5061 9.49031 3.726 9.24576 4.0113 9.20705L4.09061 9.20172H15.7808C16.1036 9.20172 16.3653 9.46341 16.3653 9.78623C16.3653 10.0821 16.1454 10.3267 15.8601 10.3654L15.7808 10.3707H4.09061C3.7678 10.3707 3.5061 10.109 3.5061 9.78623Z" fill="#12070B"/>
<path d="M10.6535 5.50533C10.4247 5.27756 10.424 4.90747 10.6517 4.67871C10.8588 4.47075 11.1835 4.45119 11.4127 4.62048L11.4783 4.67693L16.1934 9.37171C16.402 9.5794 16.4209 9.90525 16.2503 10.1344L16.1934 10.2001L11.4784 14.8956C11.2496 15.1234 10.8796 15.1227 10.6518 14.8939C10.4447 14.686 10.4265 14.3612 10.5967 14.1328L10.6535 14.0673L14.9524 9.78568L10.6535 5.50533Z" fill="#12070B"/>
</svg>
