<svg width="20" height="20" viewBox="0 0 20 20" fill="none" xmlns="http://www.w3.org/2000/svg">
<path d="M4.02435 9.78623C4.02435 9.49031 4.24425 9.24576 4.52955 9.20705L4.60886 9.20172H16.2991C16.6219 9.20172 16.8836 9.46341 16.8836 9.78623C16.8836 10.0821 16.6637 10.3267 16.3784 10.3654L16.2991 10.3707H4.60886C4.28605 10.3707 4.02435 10.109 4.02435 9.78623Z" fill="#12070B"/>
<path d="M11.1717 5.50533C10.943 5.27756 10.9422 4.90747 11.1699 4.67871C11.377 4.47075 11.7017 4.45119 11.9309 4.62048L11.9966 4.67693L16.7116 9.37171C16.9202 9.5794 16.9392 9.90525 16.7685 10.1344L16.7116 10.2001L11.9966 14.8956C11.7679 15.1234 11.3978 15.1227 11.17 14.8939C10.9629 14.686 10.9447 14.3612 11.115 14.1328L11.1717 14.0673L15.4706 9.78568L11.1717 5.50533Z" fill="#12070B"/>
</svg>
